<svg width="20.000000" height="41.391357" viewBox="0 0 20 41.3914" fill="none" xmlns="http://www.w3.org/2000/svg" xmlns:xlink="http://www.w3.org/1999/xlink">
	<desc>
			Created with Pixso.
	</desc>
	<defs>
		<clipPath id="clip2_335">
			<rect id="cutlery" width="20.000000" height="41.391304" fill="white" fill-opacity="0"/>
		</clipPath>
	</defs>
	<rect id="cutlery" width="20.000000" height="41.391304" fill="#FFFFFF" fill-opacity="0"/>
	<g clip-path="url(#clip2_335)">
		<path id="Vector" d="M14.851 2.22302C14.7216 1.94482 14.5921 1.66638 14.4683 1.38708C14.2146 0.815674 13.7406 0.411499 12.977 0.115356C12.8689 0.0635986 12.7509 0.0355225 12.631 0.0333252C12.5111 0.0311279 12.3923 0.0546875 12.2823 0.102417C12.1871 0.156372 12.1047 0.230469 12.0408 0.319336C11.977 0.408203 11.9331 0.509888 11.9124 0.617432C11.8236 0.975098 11.7789 1.34241 11.7789 1.71094C11.7655 2.6001 11.759 3.48926 11.7528 4.3783C11.7418 5.86963 11.7309 7.41187 11.6847 8.92651C11.6191 11.083 11.5339 13.2743 11.4517 15.394C11.3663 17.594 11.2776 19.8691 11.2108 22.1072C11.0983 25.8762 11.0149 29.7087 10.9342 33.4154L10.8676 36.4531C10.8472 37.3777 10.8479 38.3401 10.87 39.3136C10.8532 39.6713 10.9268 40.0273 11.0838 40.3491C11.1821 40.5122 11.5376 41.0525 11.9919 41.1492C12.0497 41.1615 12.1086 41.1677 12.1677 41.168C12.6414 41.168 12.9677 40.7396 13.0796 40.2971C13.1722 39.9098 13.2184 39.5128 13.2173 39.1145C13.2289 37.4763 13.2367 35.838 13.2405 34.1997C13.2439 33.1931 13.2477 32.1865 13.2521 31.1797C13.2531 30.9719 13.2668 30.7662 13.2825 30.5277C13.2868 30.4617 13.2912 30.3937 13.2956 30.3232C13.7561 30.3232 14.2119 30.3254 14.6628 30.33C15.8475 30.3376 16.966 30.3453 18.1062 30.311C19.4236 30.2714 19.906 29.7778 19.9496 28.4244C19.9523 28.2078 19.9415 27.9908 19.917 27.7755L19.9016 27.6041C19.8759 27.2952 19.8479 26.9868 19.8197 26.6783C19.7676 26.1102 19.7142 25.5223 19.6792 24.9446L19.6417 24.3158C19.4677 21.3909 19.2863 18.3663 18.6156 15.4529C17.8803 12.2625 17.0172 8.89124 15.9002 4.84412C15.6231 3.94312 15.2722 3.06641 14.851 2.22302ZM17.7726 28.0122L13.3856 28.0122C13.3444 25.2102 13.4289 22.2874 13.5106 19.4594C13.5466 18.2131 13.5838 16.9247 13.6104 15.6548C13.671 12.738 13.7296 9.82129 13.7866 6.90442L13.8404 4.18921C15.9042 11.1884 17.8876 19.3895 17.7723 28.0122L17.7726 28.0122Z" fill="#000000" fill-opacity="1.000000" fill-rule="nonzero"/>
		<path id="Vector" d="M1.83578 6.93396C1.73563 6.047 1.69092 5.13733 1.64761 4.25684C1.62778 3.849 1.60779 3.44116 1.5824 3.03369C1.57184 2.86182 1.56174 2.69006 1.552 2.51819C1.51981 1.95581 1.48639 1.37451 1.42343 0.803589C1.39966 0.672974 1.34149 0.551025 1.25494 0.450439C1.1684 0.349854 1.05661 0.274292 0.931061 0.231201C0.712646 0.18811 0.504333 0.418823 0.335632 0.605225C0.237213 0.733643 0.183197 0.890503 0.181915 1.05237C0.16452 1.62805 0.145203 2.20361 0.125366 2.7793C0.0709229 4.34448 0.0144958 5.96191 0.0271912 7.55444C0.036499 8.12085 0.170685 8.67822 0.420197 9.18689C0.669708 9.69556 1.02835 10.1428 1.47064 10.4968C1.91672 10.8441 2.39612 11.1464 2.9017 11.3993C3.11038 11.5133 3.32574 11.6302 3.54349 11.7571C3.52246 12.3616 3.49689 12.9709 3.47116 13.5831C3.41168 14.9996 3.34949 16.4641 3.34497 17.9163C3.32617 23.1198 3.32928 28.4104 3.3324 33.5266C3.33356 35.4586 3.33447 37.3904 3.33493 39.3223C3.33493 39.3876 3.33481 39.4534 3.33359 39.5189C3.33167 39.7213 3.32965 39.9304 3.34616 40.1388C3.40424 40.8677 3.81491 41.3497 4.37231 41.3497C4.38327 41.3497 4.39398 41.3497 4.40494 41.3497C4.98563 41.3304 5.36633 40.8292 5.37521 40.0725C5.37988 39.6566 5.36783 39.2356 5.35635 38.8285C5.34625 38.4756 5.33578 38.1111 5.33646 37.7534C5.3461 33.17 5.35828 28.5872 5.37299 24.004L5.38333 20.3633C5.38507 19.7706 5.38644 19.1779 5.38727 18.5852C5.38986 17.005 5.39282 15.3715 5.40863 13.765C5.41385 13.2443 5.44864 12.7126 5.48218 12.1985C5.49524 11.9978 5.50824 11.7971 5.51971 11.5962C7.29745 10.9556 8.35773 9.66736 8.95007 7.43762C9.51895 5.29565 9.5415 3.17041 9.48932 1.3739L9.48779 1.30896C9.48431 1.11926 9.48001 0.88269 9.34106 0.740356C9.0929 0.486328 8.802 0.213745 8.4827 0.196411C8.1799 0.178955 7.83466 0.544189 7.70264 0.814087C7.61633 1.02747 7.57693 1.25696 7.58716 1.48694C7.58472 1.57556 7.58261 1.66394 7.57358 1.74927C7.52783 2.19287 7.48807 2.63757 7.44839 3.0824C7.35501 4.12598 7.25858 5.20422 7.0824 6.24866C6.96814 6.92456 6.67899 7.59424 6.39914 8.24194C6.34402 8.36975 6.289 8.49744 6.23526 8.62451C6.18161 8.76306 6.10004 8.88904 5.99561 8.99463C5.89117 9.10022 5.76611 9.18311 5.62823 9.2384C5.62756 9.13928 5.62686 9.04199 5.62604 8.94641C5.62289 8.59351 5.61984 8.26013 5.63113 7.93005C5.64191 7.61597 5.65445 7.30188 5.66696 6.98779C5.73914 5.18799 5.81363 3.32678 5.534 1.49365C5.50842 1.2052 5.42307 0.925415 5.28348 0.671753C5.20016 0.57312 5.09448 0.495972 4.97507 0.446899C4.85562 0.397827 4.7261 0.378296 4.5975 0.389893C4.33578 0.416138 4.1611 0.781494 4.12894 0.854492C4.08502 0.975464 4.07059 1.1051 4.08698 1.23279C4.08942 1.276 4.09192 1.3197 4.09055 1.36133C4.06934 1.93958 4.04849 2.51794 4.0282 3.09656C3.9729 4.65771 3.91571 6.27209 3.84616 7.85889C3.82877 8.24158 3.77881 8.62415 3.72525 9.02759C3.70923 9.14685 3.69348 9.26709 3.67816 9.38916C2.57626 8.95105 1.9725 8.14587 1.83578 6.93396Z" fill="#000000" fill-opacity="1.000000" fill-rule="nonzero"/>
	</g>
</svg>
