<svg width="20.000000" height="41.391113" viewBox="0 0 20 41.3911" fill="none" xmlns="http://www.w3.org/2000/svg" xmlns:xlink="http://www.w3.org/1999/xlink">
	<desc>
			Created with Pixso.
	</desc>
	<defs>
		<clipPath id="clip10_241">
			<rect id="cutlery" width="20.000000" height="41.391304" fill="white" fill-opacity="0"/>
		</clipPath>
	</defs>
	<rect id="cutlery" width="20.000000" height="41.391304" fill="#FFFFFF" fill-opacity="0"/>
	<g clip-path="url(#clip10_241)">
		<path id="Vector" d="M14.851 2.22314C14.7216 1.94482 14.5921 1.6665 14.4683 1.38721C14.2145 0.81543 13.7406 0.411621 12.977 0.115234C12.8689 0.0634766 12.7509 0.0356445 12.631 0.0332031C12.5112 0.03125 12.3923 0.0546875 12.2823 0.102539C12.1871 0.15625 12.1047 0.230469 12.0408 0.319336C11.977 0.408203 11.9331 0.509766 11.9124 0.617188C11.8237 0.975098 11.7789 1.34229 11.7789 1.71094C11.7656 2.6001 11.759 3.48926 11.7527 4.37842C11.7418 5.86963 11.7309 7.41211 11.6847 8.92676C11.6191 11.083 11.5339 13.2744 11.4517 15.394C11.3663 17.5942 11.2776 19.8691 11.2108 22.1074C11.0983 25.8765 11.0148 29.709 10.9341 33.4155L10.8676 36.4531C10.8472 37.3774 10.8479 38.3403 10.87 39.3135C10.8532 39.6714 10.9268 40.0273 11.0838 40.3491C11.1821 40.5122 11.5377 41.0522 11.9919 41.1489C12.0497 41.1616 12.1086 41.168 12.1677 41.168C12.6414 41.168 12.9677 40.7397 13.0795 40.2974C13.1722 39.9097 13.2184 39.5127 13.2173 39.1147C13.2289 37.4761 13.2367 35.8379 13.2405 34.1997C13.2439 33.1934 13.2477 32.1865 13.2521 31.1797C13.2531 30.9717 13.2668 30.7661 13.2825 30.5278C13.2869 30.4614 13.2912 30.3936 13.2956 30.3232C13.7561 30.3232 14.2119 30.3257 14.6628 30.3301C15.8475 30.3379 16.9661 30.3452 18.1062 30.311C19.4236 30.2715 19.906 29.7778 19.9496 28.4243C19.9523 28.2075 19.9415 27.9907 19.917 27.7754L19.9017 27.604C19.8759 27.2954 19.8479 26.9868 19.8198 26.6782C19.7676 26.1104 19.7142 25.5225 19.6792 24.9448L19.6417 24.3159C19.4678 21.3911 19.2864 18.3662 18.6155 15.4526C17.8802 12.2622 17.0172 8.89111 15.9002 4.84424C15.6231 3.94287 15.2722 3.06641 14.851 2.22314ZM17.7726 28.0122L13.3856 28.0122C13.3444 25.21 13.4288 22.2876 13.5106 19.4595C13.5466 18.2129 13.5839 16.9248 13.6105 15.6548C13.671 12.7378 13.7296 9.82129 13.7866 6.9043L13.8404 4.18945C15.9042 11.1885 17.8876 19.3896 17.7723 28.0122L17.7726 28.0122Z" fill="#000000" fill-opacity="1.000000" fill-rule="nonzero"/>
		<path id="Vector" d="M1.83582 6.93359C1.7356 6.04639 1.69092 5.13672 1.64758 4.25635C1.62781 3.84863 1.60779 3.44092 1.5824 3.0332C1.57184 2.86133 1.56171 2.68945 1.552 2.51758C1.51984 1.95508 1.48639 1.37402 1.4234 0.803223C1.39966 0.672363 1.34149 0.550781 1.25494 0.450195C1.1684 0.349609 1.05658 0.273926 0.931091 0.230957C0.712646 0.1875 0.504333 0.418457 0.335632 0.604492C0.237244 0.733398 0.183167 0.890137 0.181946 1.05176C0.164551 1.62744 0.145203 2.20312 0.125366 2.77881C0.0709229 4.34424 0.0145264 5.96143 0.0272217 7.55371C0.036499 8.12061 0.170715 8.67773 0.420227 9.18652C0.669739 9.69482 1.02838 10.1421 1.47064 10.4966C1.91669 10.8438 2.39612 11.146 2.90167 11.3989C3.11041 11.5127 3.32574 11.6299 3.54352 11.7563C3.52246 12.3608 3.49689 12.9707 3.47113 13.5825C3.41168 14.999 3.34949 16.4639 3.34497 17.916C3.32617 23.1191 3.32928 28.4102 3.3324 33.5259C3.33356 35.458 3.33447 37.3901 3.33496 39.3218C3.33496 39.3872 3.33478 39.4526 3.33356 39.5186C3.33167 39.7207 3.32965 39.9297 3.34613 40.1382C3.40424 40.8672 3.81494 41.3491 4.37231 41.3491C4.3833 41.3491 4.39398 41.3491 4.40491 41.3491C4.9856 41.3301 5.36633 40.8286 5.37518 40.0718C5.37988 39.6562 5.3678 39.2354 5.35632 38.8281C5.34625 38.4751 5.33575 38.1108 5.33649 37.7529C5.34607 33.1694 5.35828 28.5864 5.37299 24.0034L5.38336 20.3628C5.38507 19.77 5.38641 19.1772 5.38727 18.5845C5.38989 17.0044 5.39282 15.3711 5.40863 13.7646C5.41388 13.2437 5.44861 12.7124 5.48218 12.1978C5.49524 11.9971 5.50824 11.7964 5.51971 11.5957C7.29749 10.9551 8.35773 9.66699 8.95007 7.43701C9.51898 5.29541 9.5415 3.16992 9.48932 1.37354L9.48779 1.30859C9.48431 1.11865 9.48004 0.882324 9.34106 0.739746C9.0929 0.48584 8.802 0.213379 8.48267 0.195801C8.17993 0.178711 7.83466 0.543457 7.70264 0.813477C7.61633 1.02686 7.57697 1.25635 7.58716 1.48633C7.58472 1.5752 7.58258 1.66357 7.57355 1.74854C7.52783 2.19238 7.48804 2.63721 7.44843 3.08203C7.35498 4.12549 7.25854 5.20361 7.0824 6.24805C6.96814 6.92383 6.67896 7.59375 6.39917 8.24121C6.34399 8.36914 6.289 8.49707 6.23523 8.62402C6.18158 8.7627 6.10004 8.88867 5.99561 8.99414C5.89117 9.09961 5.76611 9.18262 5.62823 9.23779C5.62756 9.13867 5.62683 9.0415 5.62604 8.9458C5.62292 8.59326 5.61981 8.25977 5.6311 7.92969C5.64191 7.61572 5.65448 7.30127 5.66699 6.9873C5.73914 5.1875 5.81366 3.32617 5.534 1.49316C5.50842 1.20459 5.42303 0.924805 5.28351 0.671387C5.2002 0.572754 5.09448 0.495605 4.97504 0.446289C4.85565 0.397461 4.72614 0.37793 4.59753 0.38916C4.33575 0.415527 4.16107 0.780762 4.12891 0.854004C4.08502 0.975098 4.07062 1.10449 4.08698 1.23242C4.08942 1.27539 4.09192 1.31934 4.09052 1.36084C4.06934 1.93896 4.04852 2.51758 4.0282 3.09619C3.9729 4.65723 3.91571 6.27148 3.84613 7.8584C3.8288 8.24121 3.77881 8.62354 3.72522 9.02686C3.70923 9.14648 3.69348 9.2666 3.67816 9.38867C2.57623 8.95068 1.97247 8.14551 1.83582 6.93359Z" fill="#000000" fill-opacity="1.000000" fill-rule="nonzero"/>
	</g>
</svg>
