<svg width="23.333374" height="48.289917" viewBox="0 0 23.3334 48.2899" fill="none" xmlns="http://www.w3.org/2000/svg" xmlns:xlink="http://www.w3.org/1999/xlink">
	<desc>
			Created with Pixso.
	</desc>
	<defs>
		<clipPath id="clip1_16">
			<rect id="cutlery" width="23.333364" height="48.289921" fill="white" fill-opacity="0"/>
		</clipPath>
	</defs>
	<rect id="cutlery" width="23.333364" height="48.289921" fill="#FFFFFF" fill-opacity="0"/>
	<g clip-path="url(#clip1_16)">
		<path id="Vector" d="M17.326 2.59343C17.1751 2.26878 17.0241 1.94402 16.8796 1.61816C16.5836 0.951431 16.0307 0.479996 15.1398 0.13446C15.0137 0.0739746 14.876 0.0413513 14.7361 0.0387573C14.5963 0.0361633 14.4576 0.0636292 14.3293 0.1194C14.2183 0.182343 14.1221 0.268707 14.0476 0.372437C13.9731 0.476151 13.9219 0.594772 13.8978 0.720169C13.7942 1.13754 13.742 1.56599 13.7421 1.99602C13.7264 3.03323 13.7188 4.07063 13.7115 5.10785C13.6987 6.84772 13.686 8.64709 13.6321 10.4141C13.5556 12.9301 13.4562 15.4865 13.3602 17.9596C13.2606 20.5262 13.1572 23.1805 13.0793 25.7916C12.948 30.1889 12.8506 34.6602 12.7565 38.9845L12.6788 42.5286C12.6551 43.6072 12.6558 44.73 12.6816 45.8658C12.662 46.283 12.7479 46.6985 12.9311 47.0739C13.0457 47.2642 13.4606 47.8944 13.9905 48.0072C14.0579 48.0216 14.1266 48.0289 14.1956 48.0291C14.7483 48.0291 15.129 47.5294 15.2595 47.0132C15.3676 46.5614 15.4215 46.0982 15.4201 45.6335C15.4337 43.7222 15.4428 41.8109 15.4473 39.8996C15.4512 38.7252 15.4556 37.5508 15.4608 36.3763C15.462 36.1338 15.478 35.8938 15.4962 35.6156C15.5013 35.5385 15.5064 35.4592 15.5115 35.377C16.0488 35.377 16.5805 35.3796 17.1066 35.3849C18.4887 35.3938 19.7937 35.4028 21.1238 35.3628C22.6608 35.3165 23.2236 34.7407 23.2746 33.1617C23.2776 32.9089 23.2651 32.6559 23.2365 32.4047L23.2186 32.2047C23.1885 31.8443 23.1559 31.4846 23.123 31.1246C23.0621 30.4618 22.9999 29.776 22.959 29.1019L22.9152 28.3683C22.7123 24.9559 22.5007 21.4273 21.7181 18.0282C20.8603 14.306 19.8534 10.373 18.5502 5.65135C18.227 4.60014 17.8175 3.5773 17.326 2.59343ZM20.7347 32.6809L15.6165 32.6809C15.5684 29.4118 15.667 26.0018 15.7623 22.7025C15.8043 21.2485 15.8478 19.7454 15.8788 18.2638C15.9495 14.8609 16.0179 11.4581 16.0843 8.05504L16.1472 4.88733C18.5549 13.053 20.8688 22.6209 20.7343 32.6809L20.7347 32.6809Z" fill="#000000" fill-opacity="1.000000" fill-rule="nonzero"/>
		<path id="Vector" d="M2.14172 8.0894C2.02484 7.05463 1.97272 5.99333 1.92218 4.96606C1.89905 4.49026 1.87573 4.01442 1.84613 3.53903C1.8338 3.33856 1.82202 3.13812 1.81067 2.93767C1.77313 2.28148 1.73407 1.60333 1.66064 0.93721C1.63287 0.784897 1.56506 0.642639 1.46411 0.525269C1.3631 0.407898 1.23267 0.319656 1.08624 0.26947C0.83136 0.219147 0.588379 0.488266 0.391541 0.70578C0.276733 0.855667 0.213684 1.0387 0.212219 1.22749C0.191956 1.89909 0.169373 2.57062 0.14624 3.24222C0.0827026 5.0683 0.0169067 6.95526 0.0317383 8.8132C0.0425415 9.47406 0.199097 10.1244 0.490234 10.7178C0.781311 11.3112 1.19977 11.833 1.71576 12.246C2.23615 12.6512 2.79547 13.0038 3.38531 13.299C3.62878 13.4319 3.88007 13.5684 4.13409 13.7163C4.1095 14.4216 4.07971 15.1325 4.04968 15.8467C3.98029 17.4993 3.90771 19.2079 3.90247 20.9021C3.88049 26.9729 3.88416 33.1452 3.88782 39.1141C3.8891 41.3681 3.8902 43.6219 3.89075 45.8757C3.89075 45.952 3.89056 46.0287 3.88916 46.1052C3.88696 46.3414 3.88458 46.5853 3.90381 46.8283C3.97162 47.6787 4.45074 48.2411 5.10101 48.2411C5.11383 48.2411 5.12628 48.2411 5.13904 48.2411C5.81653 48.2186 6.26068 47.6338 6.27106 46.751C6.27655 46.2659 6.26245 45.7747 6.24908 45.2997C6.2373 44.888 6.22504 44.4627 6.22589 44.0454C6.23712 38.6982 6.25128 33.3514 6.26849 28.0044L6.28058 23.7569C6.28259 23.0654 6.28418 22.3739 6.2851 21.6825C6.28815 19.8389 6.29163 17.9331 6.31006 16.0589C6.31616 15.4514 6.35675 14.8312 6.39587 14.2312C6.41107 13.9971 6.42627 13.763 6.43964 13.5286C8.51367 12.7812 9.75067 11.2783 10.4418 8.6769C11.1055 6.17799 11.1317 3.69853 11.0709 1.60257L11.0691 1.52689C11.065 1.30553 11.06 1.02948 10.8979 0.863495C10.6083 0.567062 10.269 0.24913 9.89648 0.228851C9.54321 0.208557 9.14038 0.634598 8.98639 0.949493C8.88568 1.19847 8.83978 1.46623 8.85168 1.73454C8.84882 1.83781 8.84637 1.94106 8.83582 2.04048C8.78247 2.55807 8.73608 3.07689 8.68982 3.5959C8.58081 4.81329 8.46832 6.07127 8.26282 7.28989C8.12952 8.07834 7.79211 8.85971 7.46564 9.61531C7.40137 9.76443 7.33716 9.91341 7.27448 10.0617C7.21185 10.2233 7.1167 10.3703 6.99487 10.4935C6.87305 10.6167 6.72711 10.7134 6.56628 10.7778C6.56549 10.6622 6.56464 10.5487 6.56372 10.4372C6.56006 10.0255 6.55646 9.63661 6.56964 9.25151C6.58221 8.88507 6.59686 8.51863 6.61145 8.15221C6.69568 6.0524 6.78259 3.88101 6.4563 1.74226C6.42645 1.40582 6.3269 1.07936 6.16406 0.783447C6.06683 0.668381 5.94354 0.578354 5.8042 0.521103C5.66492 0.463852 5.51379 0.44104 5.36377 0.454529C5.05841 0.485168 4.85461 0.911438 4.81708 0.996658C4.76581 1.13776 4.74902 1.28902 4.76813 1.43793C4.77094 1.48845 4.77393 1.53941 4.77228 1.58791C4.74756 2.26262 4.72327 2.93738 4.69958 3.61234C4.63507 5.43376 4.56836 7.31723 4.48718 9.16849C4.46686 9.61485 4.40857 10.0612 4.34607 10.5319C4.32745 10.6711 4.30902 10.8113 4.2912 10.9538C3.00562 10.4426 2.30121 9.5032 2.14172 8.0894Z" fill="#000000" fill-opacity="1.000000" fill-rule="nonzero"/>
	</g>
</svg>
