<svg width="20.000000" height="41.391113" viewBox="0 0 20 41.3911" fill="none" xmlns="http://www.w3.org/2000/svg" xmlns:xlink="http://www.w3.org/1999/xlink">
	<desc>
			Created with Pixso.
	</desc>
	<defs>
		<clipPath id="clip2_443">
			<rect id="cutlery" width="20.000000" height="41.391304" fill="white" fill-opacity="0"/>
		</clipPath>
	</defs>
	<rect id="cutlery" width="20.000000" height="41.391304" fill="#FFFFFF" fill-opacity="0"/>
	<g clip-path="url(#clip2_443)">
		<path id="Vector" d="M14.8508 2.22314C14.7214 1.94482 14.592 1.6665 14.4683 1.38721C14.2145 0.81543 13.7406 0.411621 12.9769 0.115234C12.8688 0.0634766 12.7509 0.0356445 12.631 0.0332031C12.5111 0.03125 12.3922 0.0546875 12.2822 0.102539C12.187 0.15625 12.1046 0.230469 12.0408 0.319336C11.9769 0.408203 11.9331 0.509766 11.9124 0.617188C11.8236 0.975098 11.7788 1.34229 11.7788 1.71094C11.7655 2.6001 11.7589 3.48926 11.7527 4.37842C11.7417 5.86963 11.7308 7.41211 11.6846 8.92676C11.619 11.083 11.5338 13.2744 11.4515 15.394C11.3662 17.5942 11.2776 19.8691 11.2108 22.1074C11.0983 25.8765 11.0148 29.709 10.9341 33.4155L10.8676 36.4531C10.8472 37.3774 10.8478 38.3398 10.8699 39.3135C10.8531 39.6714 10.9268 40.0273 11.0837 40.3491C11.182 40.5122 11.5376 41.0522 11.9918 41.1489C12.0497 41.1616 12.1085 41.168 12.1676 41.168C12.6414 41.168 12.9677 40.7397 13.0795 40.2974C13.1721 39.9097 13.2184 39.5127 13.2172 39.1147C13.2288 37.4761 13.2367 35.8379 13.2405 34.1997C13.2439 33.1934 13.2477 32.1865 13.2521 31.1797C13.2531 30.9717 13.2667 30.7661 13.2825 30.5278C13.2867 30.4614 13.2911 30.3936 13.2955 30.3232C13.756 30.3232 14.2118 30.3257 14.6627 30.3301C15.8474 30.3379 16.9659 30.3452 18.1061 30.311C19.4235 30.2715 19.9059 29.7778 19.9496 28.4243C19.9521 28.2075 19.9414 27.9907 19.9169 27.7754L19.9016 27.604C19.8759 27.2954 19.8479 26.9868 19.8197 26.6782C19.7675 26.1104 19.7141 25.5225 19.6792 24.9448L19.6416 24.3159C19.4677 21.3911 19.2863 18.3662 18.6155 15.4526C17.8802 12.2622 17.0172 8.89111 15.9001 4.84424C15.623 3.94287 15.2721 3.06641 14.8508 2.22314ZM17.7726 28.0122L13.3855 28.0122C13.3444 25.21 13.4288 22.2876 13.5105 19.4595C13.5465 18.2129 13.5837 16.9248 13.6104 15.6548C13.6709 12.7378 13.7296 9.82129 13.7865 6.9043L13.8403 4.18945C15.9042 11.1885 17.8875 19.3896 17.7722 28.0122L17.7726 28.0122Z" fill="#000000" fill-opacity="1.000000" fill-rule="nonzero"/>
		<path id="Vector" d="M1.83582 6.93408C1.7356 6.04688 1.69092 5.13721 1.64758 4.25684C1.62781 3.84912 1.60779 3.44141 1.5824 3.03369C1.5719 2.86182 1.56177 2.68994 1.552 2.51807C1.51978 1.95557 1.48633 1.37451 1.42346 0.803711C1.39966 0.672852 1.34143 0.55127 1.255 0.450684C1.16846 0.350098 1.05664 0.274414 0.93103 0.231445C0.712646 0.187988 0.504272 0.418945 0.335571 0.60498C0.237183 0.733887 0.183228 0.890625 0.181885 1.05225C0.164551 1.62793 0.145142 2.20361 0.125366 2.7793C0.0709229 4.34473 0.0145264 5.96191 0.0272217 7.5542C0.036499 8.12109 0.170654 8.67822 0.420166 9.18701C0.669678 9.69531 1.02832 10.1426 1.4707 10.4971C1.91675 10.8442 2.39612 11.1465 2.90173 11.3994C3.11035 11.5132 3.32581 11.6304 3.54346 11.7568C3.52246 12.3613 3.49695 12.9712 3.47119 13.583C3.41162 14.9995 3.34949 16.4644 3.34497 17.9165C3.32617 23.1196 3.32922 28.4106 3.3324 33.5264C3.3335 35.4585 3.33447 37.3906 3.33496 39.3223C3.33496 39.3877 3.33484 39.4531 3.33362 39.519C3.33167 39.7212 3.32959 39.9302 3.34619 40.1387C3.4043 40.8677 3.81494 41.3496 4.37231 41.3496C4.3833 41.3496 4.39392 41.3496 4.40491 41.3496C4.9856 41.3306 5.36633 40.8291 5.37524 40.0723C5.37988 39.6567 5.3678 39.2358 5.35632 38.8286C5.34631 38.4756 5.33582 38.1113 5.33643 37.7534C5.34607 33.1699 5.35828 28.5869 5.37305 24.0039L5.3833 20.3633C5.38513 19.7705 5.38647 19.1777 5.38721 18.585C5.38989 17.0049 5.39282 15.3716 5.40869 13.7651C5.41382 13.2441 5.44861 12.7129 5.48218 12.1982C5.49524 11.9976 5.5083 11.7969 5.51978 11.5962C7.29749 10.9556 8.35779 9.66748 8.95007 7.4375C9.51892 5.2959 9.5415 3.17041 9.48938 1.37402L9.48779 1.30908C9.48438 1.11914 9.47998 0.882812 9.34106 0.740234C9.0929 0.486328 8.802 0.213867 8.48267 0.196289C8.17993 0.179199 7.83459 0.543945 7.70264 0.813965C7.61633 1.02734 7.5769 1.25684 7.58716 1.48682C7.58472 1.57568 7.58264 1.66406 7.57361 1.74902C7.52783 2.19287 7.48804 2.6377 7.44836 3.08252C7.35498 4.12598 7.25854 5.2041 7.0824 6.24854C6.96814 6.92432 6.67896 7.59424 6.39917 8.2417C6.34399 8.36963 6.28894 8.49756 6.23523 8.62451C6.18164 8.76318 6.09998 8.88916 5.99561 8.99463C5.89124 9.1001 5.76611 9.18311 5.6283 9.23828C5.62756 9.13916 5.62683 9.04199 5.62598 8.94629C5.62292 8.59375 5.61987 8.26025 5.6311 7.93018C5.64197 7.61621 5.65442 7.30176 5.66699 6.98779C5.73914 5.18799 5.8136 3.32666 5.53394 1.49365C5.50842 1.20508 5.4231 0.925293 5.28345 0.671875C5.2002 0.573242 5.09448 0.496094 4.9751 0.446777C4.85559 0.397949 4.72607 0.378418 4.59753 0.389648C4.33582 0.416016 4.16113 0.78125 4.12891 0.854492C4.08496 0.975586 4.07056 1.10498 4.08704 1.23291C4.08936 1.27588 4.09192 1.31982 4.09058 1.36133C4.06934 1.93945 4.04846 2.51807 4.0282 3.09668C3.9729 4.65771 3.91577 6.27197 3.84619 7.85889C3.82874 8.2417 3.77881 8.62402 3.72522 9.02734C3.70923 9.14697 3.69348 9.26709 3.67822 9.38916C2.57629 8.95117 1.97253 8.146 1.83582 6.93408Z" fill="#000000" fill-opacity="1.000000" fill-rule="nonzero"/>
	</g>
</svg>
