<svg width="20.000000" height="41.391357" viewBox="0 0 20 41.3914" fill="none" xmlns="http://www.w3.org/2000/svg" xmlns:xlink="http://www.w3.org/1999/xlink">
	<desc>
			Created with Pixso.
	</desc>
	<defs>
		<clipPath id="clip2_590">
			<rect id="cutlery" width="20.000000" height="41.391304" fill="white" fill-opacity="0"/>
		</clipPath>
	</defs>
	<rect id="cutlery" width="20.000000" height="41.391304" fill="#FFFFFF" fill-opacity="0"/>
	<g clip-path="url(#clip2_590)">
		<path id="Vector" d="M14.8508 2.22314C14.7214 1.94482 14.592 1.6665 14.4683 1.38721C14.2146 0.815674 13.7405 0.411621 12.9768 0.115479C12.8689 0.0634766 12.7507 0.0356445 12.6309 0.0334473C12.511 0.0310059 12.3921 0.0546875 12.2822 0.102539C12.187 0.156494 12.1047 0.230469 12.0408 0.319336C11.9768 0.408203 11.9331 0.51001 11.9124 0.617432C11.8235 0.975098 11.7788 1.34229 11.7788 1.71094C11.7654 2.6001 11.759 3.48926 11.7527 4.37817C11.7417 5.86963 11.731 7.41187 11.6846 8.92651C11.6191 11.083 11.5339 13.2742 11.4517 15.394C11.3662 17.594 11.2776 19.8691 11.2107 22.1072C11.0981 25.8762 11.0149 29.7087 10.9341 33.4153L10.8674 36.4531C10.8472 37.3777 10.8479 38.3401 10.8699 39.3137C10.853 39.6711 10.9268 40.0273 11.0837 40.3491C11.1819 40.5122 11.5376 41.0525 11.9919 41.1492C12.0496 41.1614 12.1084 41.1677 12.1677 41.168C12.6414 41.168 12.9678 40.7395 13.0796 40.2971C13.1721 39.9099 13.2185 39.5127 13.2173 39.1145C13.2288 37.4763 13.2366 35.8379 13.2405 34.1997C13.2439 33.1931 13.2476 32.1865 13.252 31.1797C13.2532 30.9719 13.2668 30.7661 13.2825 30.5278C13.2869 30.4617 13.2913 30.3936 13.2954 30.3232C13.7561 30.3232 14.2119 30.3254 14.6626 30.3301C15.8474 30.3376 16.9661 30.3452 18.1062 30.311C19.4236 30.2715 19.906 29.7778 19.9497 28.4243C19.9521 28.2078 19.9414 27.991 19.917 27.7756L19.9016 27.604C19.876 27.2952 19.8479 26.9868 19.8196 26.6785C19.7676 26.1101 19.7141 25.5225 19.6792 24.9446L19.6416 24.3157C19.4678 21.3909 19.2864 18.3665 18.6155 15.4529C17.8801 12.2625 17.0171 8.89136 15.9001 4.84424C15.623 3.94312 15.2722 3.06641 14.8508 2.22314ZM17.7725 28.0122L13.3855 28.0122C13.3442 25.2102 13.4287 22.2874 13.5105 19.4595C13.5466 18.2131 13.5837 16.9248 13.6104 15.6548C13.6709 12.738 13.7295 9.82129 13.7866 6.90454L13.8403 4.18921C15.9041 11.1885 17.8875 19.3894 17.7722 28.0122L17.7725 28.0122Z" fill="#000000" fill-opacity="1.000000" fill-rule="nonzero"/>
		<path id="Vector" d="M1.83569 6.93384C1.7356 6.04688 1.69092 5.13721 1.64771 4.25659C1.62769 3.84888 1.60767 3.44092 1.58228 3.03345C1.57178 2.86157 1.56177 2.6897 1.552 2.51807C1.51978 1.95557 1.48633 1.37427 1.42334 0.803223C1.39966 0.672852 1.34155 0.550781 1.25488 0.450195C1.16846 0.349609 1.05664 0.273926 0.931152 0.230957C0.712646 0.187744 0.504395 0.418457 0.335693 0.60498C0.237305 0.733398 0.183105 0.890381 0.181885 1.05225C0.164551 1.62769 0.145264 2.20337 0.125244 2.77905C0.0710449 4.34424 0.0144043 5.96167 0.0270996 7.5542C0.036377 8.12061 0.170654 8.67798 0.420166 9.18677C0.669678 9.69531 1.02832 10.1426 1.4707 10.4966C1.91675 10.844 2.39624 11.1462 2.90161 11.3992C3.11035 11.5129 3.32568 11.6301 3.54346 11.7568C3.52246 12.3613 3.49683 12.9707 3.47119 13.5828C3.41162 14.9995 3.34937 16.4639 3.34497 17.916C3.32617 23.1196 3.32935 28.4102 3.33252 33.5264C3.3335 35.4583 3.33447 37.3901 3.33496 39.322C3.33496 39.3875 3.33472 39.4531 3.3335 39.5188C3.33179 39.7212 3.32959 39.9302 3.34619 40.1384C3.4043 40.8674 3.81494 41.3494 4.37231 41.3494C4.3833 41.3494 4.39404 41.3494 4.40503 41.3494C4.9856 41.3301 5.36621 40.8289 5.37524 40.0723C5.37988 39.6565 5.36792 39.2354 5.35645 38.8284C5.34619 38.4753 5.33569 38.1108 5.33643 37.7532C5.34619 33.1699 5.35815 28.5869 5.37305 24.0037L5.3833 20.363C5.38501 19.7703 5.38647 19.1777 5.38721 18.585C5.38989 17.0046 5.39282 15.3711 5.40869 13.7649C5.41382 13.2441 5.44873 12.7124 5.48218 12.1982C5.49512 11.9976 5.5083 11.7969 5.51978 11.5959C7.29736 10.9553 8.35767 9.66699 8.9502 7.43726C9.51904 5.29541 9.5415 3.17017 9.48926 1.37354L9.48779 1.30884C9.48438 1.1189 9.47998 0.882324 9.34106 0.740234C9.09277 0.486084 8.802 0.213623 8.48267 0.196045C8.17993 0.178711 7.83472 0.543945 7.70264 0.813965C7.61621 1.02734 7.5769 1.25684 7.58716 1.48682C7.58472 1.5752 7.58252 1.66382 7.57349 1.74902C7.52783 2.19263 7.48804 2.63745 7.44849 3.08228C7.35498 4.12573 7.25854 5.20386 7.08252 6.24854C6.96826 6.92432 6.67896 7.59399 6.39917 8.2417C6.34399 8.36938 6.28906 8.49707 6.23535 8.62427C6.18164 8.7627 6.1001 8.88892 5.99561 8.99438C5.89111 9.09985 5.76611 9.18286 5.62817 9.23804C5.62744 9.13892 5.62695 9.04175 5.62598 8.94604C5.6228 8.59326 5.61987 8.26001 5.6311 7.92993C5.64185 7.61572 5.65454 7.30176 5.66699 6.98755C5.73926 5.18774 5.81372 3.32666 5.53394 1.49341C5.5083 1.20508 5.4231 0.925049 5.28345 0.671631C5.2002 0.572998 5.09448 0.49585 4.9751 0.446777C4.85571 0.397705 4.72607 0.37793 4.59741 0.389648C4.33569 0.415771 4.16113 0.78125 4.12891 0.854248C4.08496 0.975098 4.07056 1.10498 4.08691 1.23242C4.08936 1.27588 4.09204 1.31958 4.09058 1.36108C4.06934 1.93945 4.04858 2.51782 4.02832 3.09619C3.9729 4.65747 3.91577 6.27197 3.84619 7.85864C3.82886 8.24121 3.77881 8.62378 3.72534 9.02734C3.70923 9.14673 3.69336 9.26685 3.67822 9.38892C2.57617 8.95093 1.97241 8.14551 1.83569 6.93384Z" fill="#000000" fill-opacity="1.000000" fill-rule="nonzero"/>
	</g>
</svg>
